# xmcd
#
# Track frame offsets: 
#        150
#        12817
#        24420
#        34912
#        45527
#        56760
#        68077
#        79467
#        94380
#        113807
#        125127
#        137215
#        148955
#        159432
#        170770
#
# Disc length: 2463 seconds
#
# Revision: 0
# Processed by: cddbd v1.5.2PL0 Copyright (c) Steve Scherf et al.
# Submitted via: ExactAudioCopy v0.95b3
#
DISCID=db099d0f
DTITLE=Dinah Washington  - What A Diff'rence A Day Makes  FLAC
DYEAR=1900
DGENRE=
TTITLE0=I Remember You
TTITLE1=I thought About You
TTITLE2=That's All There Is To That
TTITLE3=I Won't Cry Anymore
TTITLE4=I'm Thru With Love
TTITLE5=Cry Me A River
TTITLE6=What A Diff'rence a Day Makes
TTITLE7=Nothing In the World
TTITLE8=Manhattan
TTITLE9=Time After Time
TTITLE10=It's Magic
TTITLE11=A Sunday Kind of Love
TTITLE12=Time After Time
TTITLE13=Come On Home
TTITLE14=It Could Happen to You
EXTD=
EXTT0=
EXTT1=
EXTT2=
EXTT3=
EXTT4=
EXTT5=
EXTT6=
EXTT7=
EXTT8=
EXTT9=
EXTT10=
EXTT11=
EXTT12=
EXTT13=
EXTT14=
PLAYORDER=
